<svg width="32" height="29" viewBox="0 0 32 29" fill="none" xmlns="http://www.w3.org/2000/svg">
<path d="M5.25 0.5C5.85156 0.5 6.39844 0.992188 6.50781 1.59375L6.61719 2.25H29.5859C30.7344 2.25 31.6094 3.39844 31.2812 4.49219L28.3281 14.9922C28.1094 15.7578 27.4531 16.25 26.6328 16.25H9.29688L9.78906 18.875H26.6875C27.3984 18.875 28 19.4766 28 20.1875C28 20.9531 27.3984 21.5 26.6875 21.5H8.69531C8.09375 21.5 7.54688 21.0625 7.4375 20.4609L4.15625 3.125H1.3125C0.546875 3.125 0 2.57812 0 1.8125C0 1.10156 0.546875 0.5 1.3125 0.5H5.25ZM7 25.875C7 24.4531 8.14844 23.25 9.625 23.25C11.0469 23.25 12.25 24.4531 12.25 25.875C12.25 27.3516 11.0469 28.5 9.625 28.5C8.14844 28.5 7 27.3516 7 25.875ZM28 25.875C28 27.3516 26.7969 28.5 25.375 28.5C23.8984 28.5 22.75 27.3516 22.75 25.875C22.75 24.4531 23.8984 23.25 25.375 23.25C26.7969 23.25 28 24.4531 28 25.875Z" fill="#68866C"/>
</svg>
