<svg width="192" height="38" viewBox="0 0 192 38" fill="none" xmlns="http://www.w3.org/2000/svg">
<g filter="url(#filter0_d_126_64)">
<path d="M24.305 14.1164C24.3133 13.0878 24.2759 12.0657 24.193 11.0501C24.1231 10.0215 23.9877 9.04492 23.7868 8.12047C23.5991 7.18301 23.3456 6.31715 23.0265 5.5229C22.7205 4.71564 22.3355 4.01905 21.8714 3.43313C21.4075 2.83419 20.8579 2.36545 20.2226 2.02692C19.6003 1.68839 18.8855 1.51913 18.0782 1.51913C16.9194 1.51913 15.875 1.85766 14.9451 2.53472C14.0283 3.19876 13.2398 4.09717 12.5796 5.22994C11.9196 6.3497 11.4079 7.64523 11.0445 9.11654C10.6942 10.5748 10.5126 12.0982 10.4999 13.6867C10.4857 15.4445 10.6617 17.0395 11.0278 18.4717C11.407 19.8909 11.885 21.1604 12.462 22.2802C13.0389 23.3999 13.6691 24.3765 14.3525 25.2098C15.0359 26.0431 15.6748 26.7332 16.2694 27.28C16.877 27.8269 17.3944 28.2435 17.8218 28.53C18.2622 28.8164 18.5149 28.9727 18.5798 28.9987H11.0993C10.8529 28.8815 10.5099 28.6211 10.0704 28.2175C9.644 27.8138 9.16642 27.293 8.6377 26.655C8.122 26.017 7.59412 25.2749 7.05405 24.4285C6.52711 23.5692 6.04632 22.6382 5.61168 21.6357C5.17714 20.6201 4.82126 19.5394 4.54402 18.3936C4.27991 17.2348 4.15283 16.0369 4.16278 14.7999C4.16886 14.0448 4.24109 13.1594 4.37947 12.1438C4.53087 11.1282 4.79315 10.0866 5.16633 9.01888C5.53961 7.93819 6.04294 6.87703 6.67632 5.83539C7.32272 4.79376 8.13751 3.8628 9.12067 3.04251C10.1038 2.22223 11.2811 1.55819 12.6523 1.05039C14.0236 0.542595 15.6337 0.288697 17.4827 0.288697C18.7066 0.288697 19.8125 0.405881 20.8002 0.640248C21.801 0.861595 22.7034 1.17409 23.5075 1.57772C24.3116 1.96833 25.024 2.43055 25.6447 2.96439C26.2654 3.49823 26.8142 4.07113 27.2911 4.68309C27.7778 4.07113 28.3553 3.49823 29.0236 2.96439C29.692 2.43055 30.4574 1.96833 31.32 1.57772C32.1826 1.17409 33.1551 0.861595 34.2377 0.640248C35.3333 0.405881 36.5517 0.288697 37.8928 0.288697C39.6897 0.288697 41.2701 0.490514 42.6341 0.894146C44.011 1.29778 45.198 1.84464 46.1951 2.53472C47.2052 3.21178 48.0388 3.99951 48.6956 4.89792C49.3655 5.78331 49.8984 6.71427 50.2942 7.6908C50.7031 8.65431 50.9882 9.63735 51.1494 10.6399C51.3107 11.6295 51.3878 12.5604 51.3808 13.4328C51.3676 15.0734 51.1082 16.5707 50.6025 17.9248C50.0969 19.2659 49.4491 20.4768 48.6592 21.5575C47.8693 22.6252 46.9828 23.5757 45.9995 24.409C45.0293 25.2423 44.0664 25.9649 43.111 26.5769C42.1556 27.1758 41.2597 27.6771 40.4231 28.0808C39.5996 28.4714 38.9331 28.7774 38.4235 28.9987H36.7048C36.7701 28.9727 37.0187 28.8164 37.4507 28.53C37.8828 28.2305 38.4071 27.8008 39.0236 27.2409C39.6401 26.6811 40.2968 25.978 40.9937 25.1316C41.6906 24.2853 42.3367 23.2893 42.9318 22.1435C43.527 20.9977 44.0257 19.7021 44.4279 18.2569C44.8303 16.7986 45.0386 15.1775 45.053 13.3937C45.0678 11.5579 44.8662 9.90427 44.4484 8.43296C44.0305 6.96166 43.4611 5.71821 42.7401 4.70262C42.0323 3.674 41.2053 2.88627 40.2591 2.33941C39.313 1.79255 38.3191 1.51913 37.2775 1.51913C36.4441 1.51913 35.7006 1.68839 35.0468 2.02692C34.393 2.36545 33.8164 2.83419 33.3167 3.43313C32.8172 4.01905 32.3885 4.71564 32.0304 5.5229C31.6855 6.31715 31.3986 7.18301 31.1697 8.12047C30.9409 9.04492 30.7702 10.0215 30.6578 11.0501C30.5585 12.0657 30.5047 13.0878 30.4964 14.1164L30.3767 28.9987H24.1852L24.305 14.1164ZM64.8757 8.72592C64.3288 8.72592 63.8857 8.78452 63.5462 8.9017C63.2068 9.00586 62.9387 9.1556 62.7418 9.3509C62.545 9.53319 62.4066 9.74803 62.3264 9.99541C62.2595 10.2298 62.2249 10.4837 62.2227 10.7571L62.1296 22.3192C62.1214 23.3348 62.2708 24.1942 62.5776 24.8973C62.8845 25.6004 63.2836 26.1603 63.775 26.5769C64.2666 26.9805 64.8113 27.2475 65.4092 27.3777C66.0202 27.5079 66.6192 27.5014 67.2063 27.3581C68.0412 27.1628 68.7796 26.8178 69.4216 26.323C70.0637 25.8152 70.6025 25.2033 71.038 24.4871C71.4864 23.771 71.8248 22.9768 72.0532 22.1044C72.2947 21.219 72.4193 20.3011 72.4269 19.3506L72.4961 10.7571C72.4977 10.5618 72.4668 10.347 72.4036 10.1126C72.3534 9.87823 72.2315 9.66339 72.0377 9.46809C71.8571 9.25976 71.5916 9.08399 71.2412 8.94076C70.9038 8.79754 70.4486 8.72592 69.8757 8.72592L69.8815 8.00329H81.0729L81.0671 8.72592C80.5333 8.72592 80.0901 8.78452 79.7376 8.9017C79.3982 9.00586 79.1301 9.1556 78.9332 9.3509C78.7364 9.53319 78.598 9.74803 78.5178 9.99541C78.4509 10.2298 78.4163 10.4837 78.4141 10.7571L78.2894 26.2449C78.2879 26.4402 78.3187 26.655 78.3819 26.8894C78.4451 27.1238 78.567 27.3451 78.7477 27.5534C78.9284 27.7487 79.1874 27.918 79.5248 28.0612C79.8752 28.2045 80.3369 28.2761 80.9098 28.2761L80.904 28.9987H72.3493L72.3812 25.034C72.1037 25.5418 71.7742 26.0366 71.3927 26.5183C71.0112 27.0001 70.5584 27.4428 70.0344 27.8464C69.5103 28.25 68.9084 28.6081 68.2288 28.9206C67.5624 29.2201 66.8118 29.4479 65.9772 29.6042C64.8689 29.7995 63.866 29.832 62.9687 29.7018C62.0713 29.5716 61.266 29.3242 60.5527 28.9596C59.8526 28.5951 59.2443 28.1328 58.728 27.573C58.2117 27.0001 57.7806 26.3686 57.4346 25.6785C57.1016 24.9884 56.8536 24.2528 56.6907 23.4715C56.5277 22.6903 56.4493 21.9091 56.4556 21.1279L56.54 10.6399C56.5416 10.4446 56.5042 10.2363 56.4278 10.0149C56.3645 9.7936 56.2359 9.59178 56.0421 9.4095C55.8484 9.21419 55.5762 9.05143 55.2257 8.92123C54.8882 8.79103 54.4525 8.72592 53.9187 8.72592L53.9245 8.00329H64.8815L64.8757 8.72592ZM83.5407 28.9987L83.2558 28.0026L83.2561 27.9636L96.9826 9.03841H90.049C89.5151 9.03841 88.9614 9.08399 88.3877 9.17513C87.8272 9.25325 87.2986 9.4095 86.8019 9.64386C86.3052 9.87823 85.8664 10.2037 85.4855 10.6204C85.1176 11.024 84.8595 11.5514 84.711 12.2024L84.1843 12.1243C84.1882 11.6425 84.166 11.1607 84.1178 10.679C84.0691 10.2623 83.988 9.81964 83.8746 9.3509C83.7743 8.86915 83.6217 8.41994 83.4167 8.00329H102.714L103.018 9.03841L89.2717 27.9636H96.2639C96.8108 27.9636 97.371 27.9245 97.9445 27.8464C98.5182 27.7553 99.0533 27.599 99.5499 27.3777C100.047 27.1433 100.479 26.8243 100.847 26.4207C101.215 26.004 101.466 25.4637 101.602 24.7996L102.167 24.9168C102.163 25.3986 102.186 25.8803 102.234 26.3621C102.283 26.7787 102.351 27.2214 102.438 27.6902C102.538 28.1589 102.691 28.5951 102.896 28.9987H83.5407ZM105.997 14.9953C106.006 13.9146 106.164 12.8078 106.473 11.675C106.782 10.5293 107.233 9.42903 107.828 8.37437C108.422 7.3067 109.153 6.30413 110.02 5.36666C110.9 4.41617 111.903 3.58937 113.028 2.88627C114.167 2.18317 115.434 1.6298 116.831 1.22617C118.227 0.809514 119.739 0.601187 121.367 0.601187C123.047 0.601187 124.588 0.789983 125.991 1.16757C127.407 1.54517 128.679 2.06598 129.807 2.73002C130.947 3.39407 131.944 4.1818 132.796 5.09323C133.661 6.00466 134.375 6.99421 134.94 8.06188C135.517 9.11654 135.944 10.2363 136.221 11.4211C136.511 12.606 136.651 13.7974 136.642 14.9953C136.632 16.141 136.473 17.2999 136.164 18.4717C135.869 19.6435 135.423 20.7763 134.829 21.87C134.247 22.9637 133.516 23.9924 132.636 24.9559C131.769 25.9194 130.759 26.7592 129.608 27.4753C128.469 28.1914 127.188 28.7578 125.766 29.1745C124.356 29.5911 122.812 29.7995 121.132 29.7995C119.478 29.7995 117.957 29.5911 116.567 29.1745C115.177 28.7708 113.918 28.211 112.791 27.4948C111.677 26.7787 110.694 25.9389 109.843 24.9754C108.991 24.0119 108.277 22.9833 107.699 21.8896C107.122 20.7958 106.689 19.6631 106.399 18.4912C106.122 17.3064 105.988 16.141 105.997 14.9953ZM112.717 14.9171C112.708 16.0239 112.757 17.1176 112.866 18.1983C112.987 19.279 113.181 20.3141 113.446 21.3036C113.712 22.2802 114.056 23.1916 114.479 24.0379C114.915 24.8712 115.443 25.6004 116.063 26.2254C116.683 26.8503 117.402 27.3451 118.219 27.7097C119.036 28.0743 119.966 28.2631 121.007 28.2761C122.049 28.2761 122.995 28.0938 123.844 27.7292C124.693 27.3516 125.446 26.8438 126.102 26.2058C126.758 25.5678 127.324 24.8192 127.8 23.9598C128.276 23.1005 128.674 22.189 128.994 21.2255C129.314 20.249 129.55 19.2399 129.702 18.1983C129.867 17.1436 129.966 16.115 130 15.1124C130.008 14.0838 129.952 13.0487 129.83 12.0071C129.721 10.9654 129.527 9.96937 129.248 9.01888C128.983 8.05537 128.632 7.15696 128.196 6.32366C127.76 5.49035 127.225 4.76772 126.592 4.15576C125.959 3.53078 125.227 3.04251 124.397 2.69096C123.566 2.33941 122.617 2.16364 121.55 2.16364C120.508 2.16364 119.569 2.31988 118.733 2.63237C117.911 2.94486 117.171 3.38756 116.516 3.96045C115.873 4.53335 115.314 5.21041 114.839 5.99164C114.377 6.77286 113.993 7.63872 113.685 8.58921C113.378 9.5397 113.142 10.5488 112.977 11.6165C112.826 12.6841 112.739 13.7844 112.717 14.9171ZM160.672 14.1164C160.68 13.0878 160.643 12.0657 160.56 11.0501C160.49 10.0215 160.355 9.04492 160.154 8.12047C159.966 7.18301 159.713 6.31715 159.394 5.5229C159.088 4.71564 158.703 4.01905 158.239 3.43313C157.775 2.83419 157.225 2.36545 156.59 2.02692C155.968 1.68839 155.253 1.51913 154.445 1.51913C153.287 1.51913 152.242 1.85766 151.312 2.53472C150.395 3.19876 149.607 4.09717 148.947 5.22994C148.287 6.3497 147.775 7.64523 147.412 9.11654C147.061 10.5748 146.88 12.0982 146.867 13.6867C146.853 15.4445 147.029 17.0395 147.395 18.4717C147.774 19.8909 148.252 21.1604 148.829 22.2802C149.406 23.3999 150.036 24.3765 150.72 25.2098C151.403 26.0431 152.042 26.7332 152.637 27.28C153.244 27.8269 153.762 28.2435 154.189 28.53C154.629 28.8164 154.882 28.9727 154.947 28.9987H147.466C147.22 28.8815 146.877 28.6211 146.438 28.2175C146.011 27.8138 145.534 27.293 145.005 26.655C144.489 26.017 143.961 25.2749 143.421 24.4285C142.894 23.5692 142.414 22.6382 141.979 21.6357C141.544 20.6201 141.188 19.5394 140.911 18.3936C140.647 17.2348 140.52 16.0369 140.53 14.7999C140.536 14.0448 140.608 13.1594 140.747 12.1438C140.898 11.1282 141.16 10.0866 141.534 9.01888C141.907 7.93819 142.41 6.87703 143.044 5.83539C143.69 4.79376 144.505 3.8628 145.488 3.04251C146.471 2.22223 147.648 1.55819 149.02 1.05039C150.391 0.542595 152.001 0.288697 153.85 0.288697C155.074 0.288697 156.18 0.405881 157.167 0.640248C158.168 0.861595 159.071 1.17409 159.875 1.57772C160.679 1.96833 161.391 2.43055 162.012 2.96439C162.633 3.49823 163.181 4.07113 163.658 4.68309C164.145 4.07113 164.722 3.49823 165.391 2.96439C166.059 2.43055 166.825 1.96833 167.687 1.57772C168.55 1.17409 169.522 0.861595 170.605 0.640248C171.7 0.405881 172.919 0.288697 174.26 0.288697C176.057 0.288697 177.637 0.490514 179.001 0.894146C180.378 1.29778 181.565 1.84464 182.562 2.53472C183.572 3.21178 184.406 3.99951 185.063 4.89792C185.733 5.78331 186.266 6.71427 186.661 7.6908C187.07 8.65431 187.355 9.63735 187.517 10.6399C187.678 11.6295 187.755 12.5604 187.748 13.4328C187.735 15.0734 187.475 16.5707 186.97 17.9248C186.464 19.2659 185.816 20.4768 185.026 21.5575C184.237 22.6252 183.35 23.5757 182.367 24.409C181.396 25.2423 180.434 25.9649 179.478 26.5769C178.523 27.1758 177.627 27.6771 176.79 28.0808C175.967 28.4714 175.3 28.7774 174.791 28.9987H173.072C173.137 28.9727 173.386 28.8164 173.818 28.53C174.25 28.2305 174.774 27.8008 175.391 27.2409C176.007 26.6811 176.664 25.978 177.361 25.1316C178.058 24.2853 178.704 23.2893 179.299 22.1435C179.894 20.9977 180.393 19.7021 180.795 18.2569C181.197 16.7986 181.406 15.1775 181.42 13.3937C181.435 11.5579 181.233 9.90427 180.816 8.43296C180.398 6.96166 179.828 5.71821 179.107 4.70262C178.399 3.674 177.572 2.88627 176.626 2.33941C175.68 1.79255 174.686 1.51913 173.645 1.51913C172.811 1.51913 172.068 1.68839 171.414 2.02692C170.76 2.36545 170.184 2.83419 169.684 3.43313C169.184 4.01905 168.756 4.71564 168.398 5.5229C168.053 6.31715 167.766 7.18301 167.537 8.12047C167.308 9.04492 167.137 10.0215 167.025 11.0501C166.926 12.0657 166.872 13.0878 166.864 14.1164L166.744 28.9987H160.552L160.672 14.1164Z" fill="#942929"/>
</g>
<defs>
<filter id="filter0_d_126_64" x="0.0412979" y="0.288696" width="191.812" height="37.6084" filterUnits="userSpaceOnUse" color-interpolation-filters="sRGB">
<feFlood flood-opacity="0" result="BackgroundImageFix"/>
<feColorMatrix in="SourceAlpha" type="matrix" values="0 0 0 0 0 0 0 0 0 0 0 0 0 0 0 0 0 0 127 0" result="hardAlpha"/>
<feOffset dy="4"/>
<feGaussianBlur stdDeviation="2"/>
<feComposite in2="hardAlpha" operator="out"/>
<feColorMatrix type="matrix" values="0 0 0 0 0 0 0 0 0 0 0 0 0 0 0 0 0 0 0.25 0"/>
<feBlend mode="normal" in2="BackgroundImageFix" result="effect1_dropShadow_126_64"/>
<feBlend mode="normal" in="SourceGraphic" in2="effect1_dropShadow_126_64" result="shape"/>
</filter>
</defs>
</svg>
