<svg width="26" height="22" viewBox="0 0 26 22" fill="none" xmlns="http://www.w3.org/2000/svg">
<path d="M4.46875 0.6875C5.12891 0.6875 5.6875 1.24609 5.6875 1.90625V4.34375C5.6875 5.05469 5.12891 5.5625 4.46875 5.5625H2.03125C1.32031 5.5625 0.8125 5.05469 0.8125 4.34375V1.90625C0.8125 1.24609 1.32031 0.6875 2.03125 0.6875H4.46875ZM24.375 1.5C25.2383 1.5 26 2.26172 26 3.125C26 4.03906 25.2383 4.75 24.375 4.75H9.75C8.83594 4.75 8.125 4.03906 8.125 3.125C8.125 2.26172 8.83594 1.5 9.75 1.5H24.375ZM24.375 9.625C25.2383 9.625 26 10.3867 26 11.25C26 12.1641 25.2383 12.875 24.375 12.875H9.75C8.83594 12.875 8.125 12.1641 8.125 11.25C8.125 10.3867 8.83594 9.625 9.75 9.625H24.375ZM24.375 17.75C25.2383 17.75 26 18.5117 26 19.375C26 20.2891 25.2383 21 24.375 21H9.75C8.83594 21 8.125 20.2891 8.125 19.375C8.125 18.5117 8.83594 17.75 9.75 17.75H24.375ZM0.8125 10.0312C0.8125 9.37109 1.32031 8.8125 2.03125 8.8125H4.46875C5.12891 8.8125 5.6875 9.37109 5.6875 10.0312V12.4688C5.6875 13.1797 5.12891 13.6875 4.46875 13.6875H2.03125C1.32031 13.6875 0.8125 13.1797 0.8125 12.4688V10.0312ZM4.46875 16.9375C5.12891 16.9375 5.6875 17.4961 5.6875 18.1562V20.5938C5.6875 21.3047 5.12891 21.8125 4.46875 21.8125H2.03125C1.32031 21.8125 0.8125 21.3047 0.8125 20.5938V18.1562C0.8125 17.4961 1.32031 16.9375 2.03125 16.9375H4.46875Z" fill="#68866C"/>
</svg>
